HIERARCHY
ROOT hip
{
  OFFSET 0 0 0
  CHANNELS 6 Xposition Yposition Zposition Zrotation Yrotation Xrotation
  JOINT abdomen
  {
    OFFSET 0 20.6881 -0.73152
    CHANNELS 3 Zrotation Xrotation Yrotation
    JOINT chest
    {
      OFFSET 0 11.7043 -0.48768
      CHANNELS 3 Zrotation Xrotation Yrotation
      JOINT neck
      {
        OFFSET 0 22.1894 -2.19456
        CHANNELS 3 Zrotation Xrotation Yrotation
        JOINT head
        {
          OFFSET -0.24384 7.07133 1.2192
          CHANNELS 3 Zrotation Xrotation Yrotation
          JOINT leftEye
          {
            OFFSET 4.14528 8.04674 8.04672
            CHANNELS 3 Zrotation Xrotation Yrotation
            End Site
            {
              OFFSET 1 0 0
            }
          }
          JOINT rightEye
          {
            OFFSET -3.6576 8.04674 8.04672
            CHANNELS 3 Zrotation Xrotation Yrotation
            End Site
            {
              OFFSET 1 0 0
            }
          }
        }
      }
      JOINT rCollar
      {
        OFFSET -2.68224 19.2634 -4.8768
        CHANNELS 3 Zrotation Xrotation Yrotation
        JOINT rShldr
        {
          OFFSET -8.77824 -1.95073 1.46304
          CHANNELS 3 Zrotation Xrotation Yrotation
          JOINT rForeArm
          {
            OFFSET -28.1742 -1.7115 0.48768
            CHANNELS 3 Zrotation Xrotation Yrotation
            JOINT rHand
            {
              OFFSET -22.5879 0.773209 7.07136
              CHANNELS 3 Zrotation Xrotation Yrotation
              JOINT rThumb1
              {
                OFFSET -1.2192 -0.487915 3.41376
                CHANNELS 3 Zrotation Xrotation Yrotation
                JOINT rThumb2
                {
                  OFFSET -3.37035 -0.52449 3.41376
                  CHANNELS 3 Zrotation Xrotation Yrotation
                  End Site
                  {
                    OFFSET -1.78271 -1.18214 1.43049
                  }
                }
              }
              JOINT rIndex1
              {
                OFFSET -7.75947 0.938293 5.60832
                CHANNELS 3 Zrotation Xrotation Yrotation
                JOINT rIndex2
                {
                  OFFSET -2.54057 -0.884171 1.56538
                  CHANNELS 3 Zrotation Xrotation Yrotation
                  End Site
                  {
                    OFFSET -1.62519 -0.234802 1.16502
                  }
                }
              }
              JOINT rMid1
              {
                OFFSET -8.24714 1.18213 3.41376
                CHANNELS 3 Zrotation Xrotation Yrotation
                JOINT rMid2
                {
                  OFFSET -3.10165 -0.590103 1.0647
                  CHANNELS 3 Zrotation Xrotation Yrotation
                  End Site
                  {
                    OFFSET -2.48547 -0.328903 0.83742
                  }
                }
              }
              JOINT rRing1
              {
                OFFSET -8.82822 0.546677 1.51678
                CHANNELS 3 Zrotation Xrotation Yrotation
                JOINT rRing2
                {
                  OFFSET -2.60934 -0.819778 -0.0198488
                  CHANNELS 3 Zrotation Xrotation Yrotation
                  End Site
                  {
                    OFFSET -2.33842 -0.294052 0.168128
                  }
                }
              }
              JOINT rPinky1
              {
                OFFSET -8.27202 -0.0477905 -0.4584
                CHANNELS 3 Zrotation Xrotation Yrotation
                JOINT rPinky2
                {
                  OFFSET -1.82734 -0.647385 -0.700984
                  CHANNELS 3 Zrotation Xrotation Yrotation
                  End Site
                  {
                    OFFSET -1.69225 -0.51767 -0.607171
                  }
                }
              }
            }
          }
        }
      }
      JOINT lCollar
      {
        OFFSET 2.68224 19.2634 -4.8768
        CHANNELS 3 Zrotation Xrotation Yrotation
        JOINT lShldr
        {
          OFFSET 8.77824 -1.95073 1.46304
          CHANNELS 3 Zrotation Xrotation Yrotation
          JOINT lForeArm
          {
            OFFSET 28.1742 -1.7115 0.48768
            CHANNELS 3 Zrotation Xrotation Yrotation
            JOINT lHand
            {
              OFFSET 22.5879 0.773209 7.07136
              CHANNELS 3 Zrotation Xrotation Yrotation
              JOINT lThumb1
              {
                OFFSET 1.2192 -0.487915 3.41376
                CHANNELS 3 Zrotation Xrotation Yrotation
                JOINT lThumb2
                {
                  OFFSET 3.37035 -0.52449 3.41376
                  CHANNELS 3 Zrotation Xrotation Yrotation
                  End Site
                  {
                    OFFSET 1.78271 -1.18214 1.43049
                  }
                }
              }
              JOINT lIndex1
              {
                OFFSET 7.75947 0.938293 5.60832
                CHANNELS 3 Zrotation Xrotation Yrotation
                JOINT lIndex2
                {
                  OFFSET 2.54057 -0.884171 1.56538
                  CHANNELS 3 Zrotation Xrotation Yrotation
                  End Site
                  {
                    OFFSET 1.62519 -0.234802 1.16502
                  }
                }
              }
              JOINT lMid1
              {
                OFFSET 8.24714 1.18213 3.41376
                CHANNELS 3 Zrotation Xrotation Yrotation
                JOINT lMid2
                {
                  OFFSET 3.10165 -0.590103 1.0647
                  CHANNELS 3 Zrotation Xrotation Yrotation
                  End Site
                  {
                    OFFSET 2.48547 -0.328903 0.83742
                  }
                }
              }
              JOINT lRing1
              {
                OFFSET 8.82822 0.546677 1.51678
                CHANNELS 3 Zrotation Xrotation Yrotation
                JOINT lRing2
                {
                  OFFSET 2.60934 -0.819778 -0.0198488
                  CHANNELS 3 Zrotation Xrotation Yrotation
                  End Site
                  {
                    OFFSET 2.33842 -0.294052 0.168128
                  }
                }
              }
              JOINT lPinky1
              {
                OFFSET 8.27202 -0.0477905 -0.4584
                CHANNELS 3 Zrotation Xrotation Yrotation
                JOINT lPinky2
                {
                  OFFSET 1.82734 -0.647385 -0.700984
                  CHANNELS 3 Zrotation Xrotation Yrotation
                  End Site
                  {
                    OFFSET 1.69225 -0.51767 -0.607171
                  }
                }
              }
            }
          }
        }
      }
    }
  }
  JOINT rButtock
  {
    OFFSET -8.77824 4.35084 1.2192
    CHANNELS 3 Zrotation Xrotation Yrotation
    JOINT rThigh
    {
      OFFSET 0 -1.70687 -2.19456
      CHANNELS 3 Zrotation Xrotation Yrotation
      JOINT rShin
      {
        OFFSET 0 -36.8199 0.73152
        CHANNELS 3 Zrotation Xrotation Yrotation
        JOINT rFoot
        {
          OFFSET 0.73152 -45.1104 -5.12064
          CHANNELS 3 Zrotation Xrotation Yrotation
          End Site
          {
            OFFSET -1.1221 -3.69964 12.103
          }
        }
      }
    }
  }
  JOINT lButtock
  {
    OFFSET 8.77824 4.35084 1.2192
    CHANNELS 3 Zrotation Xrotation Yrotation
    JOINT lThigh
    {
      OFFSET 0 -1.70687 -2.19456
      CHANNELS 3 Zrotation Xrotation Yrotation
      JOINT lShin
      {
        OFFSET 0 -36.8199 0.73152
        CHANNELS 3 Zrotation Xrotation Yrotation
        JOINT lFoot
        {
          OFFSET -0.73152 -45.1104 -5.12064
          CHANNELS 3 Zrotation Xrotation Yrotation
          End Site
          {
            OFFSET 1.1221 -3.69964 12.103
          }
        }
      }
    }
  }
}
MOTION
Frames:	9
Frame Time:	0.00833333
88.6757 76.8838 92.9569 172.743 2.36 -167.737 -5.42422 -26.2196 -0.681333 0.969824 16.851 0.0274844 -2.13082 14.5839 2.13792 0.299554 -0.883745 8.3172 -0.0 0.0 0.0 -0.0 0.0 0.0 1.77578e-13 -4.49086e-14 -8.26509e-15 78.949 14.7483 -3.06547 -17.5592 -10.2205 33.0386 -0.0204682 -4.08481 -0.575063 -8.78978e-10 -2.47138e-10 2.20796e-11 -1.51593e-09 -4.30932e-10 3.79123e-11 -8.78981e-10 -2.47137e-10 2.20611e-11 7.73091 5.47488 0.417314 -8.7898e-10 -2.47135e-10 2.20758e-11 2.90554 0.965183 0.102902 -8.78968e-10 -2.47135e-10 2.20771e-11 10.2786 0.731801 0.0259123 -8.78986e-10 -2.47134e-10 2.20874e-11 2.22167 -0.733487 -0.20892 1.77742e-13 -4.48907e-14 -8.51047e-15 -77.7598 11.4381 8.14297 9.9654 -4.12029 -17.7367 0.0466297 6.15451 -0.868335 -5.44786e-10 -8.40144e-10 -1.35139e-09 -9.44706e-10 -1.45456e-09 -2.33213e-09 -5.44793e-10 -8.40146e-10 -1.35138e-09 -7.73091 5.47488 -0.417314 -5.44784e-10 -8.40146e-10 -1.35139e-09 -2.90554 0.965183 -0.102902 -5.44794e-10 -8.40146e-10 -1.35139e-09 -10.2786 0.731801 -0.0259123 -5.44785e-10 -8.40144e-10 -1.35139e-09 -2.22167 -0.733487 0.20892 -2.03217e-16 0.0 -3.88251e-19 -8.05282 -0.834758 11.1093 -0.12516 24.0138 0.519674 -4.30631 -27.9859 -9.51647 2.03217e-16 0.0 3.88251e-19 8.76566 -52.4661 -6.33464 0.0773311 19.3636 0.0307968 -4.92537 24.019 9.74369
88.443 76.7722 92.5601 172.856 2.5318 -167.523 -5.48996 -26.2059 -0.593602 0.786372 17.2394 0.068292 -1.91949 14.4636 2.14968 0.281719 -1.42767 8.1517 -0.0 0.0 0.0 -0.0 0.0 0.0 1.96636e-13 -8.17768e-14 -8.65373e-15 79.0484 14.8637 -2.54064 -17.6351 -10.2996 33.2067 -0.0217377 -4.20761 -0.592415 -7.45189e-10 -6.71534e-10 1.38468e-10 -1.28323e-09 -1.16544e-09 2.39738e-10 -7.4519e-10 -6.71532e-10 1.38457e-10 7.73091 5.47488 0.417314 -7.45192e-10 -6.71531e-10 1.38466e-10 2.90554 0.965183 0.102902 -7.45181e-10 -6.71531e-10 1.38465e-10 10.2786 0.731801 0.0259123 -7.452e-10 -6.7153e-10 1.38478e-10 2.22167 -0.733487 -0.20892 1.96762e-13 -8.1766e-14 -8.86455e-15 -77.4549 11.3688 7.78433 10.0005 -4.14167 -17.8024 0.0423334 5.86945 -0.827815 -6.83258e-10 -1.0185e-09 -2.05557e-09 -1.18878e-09 -1.76393e-09 -3.54962e-09 -6.83264e-10 -1.0185e-09 -2.05555e-09 -7.73091 5.47488 -0.417314 -6.83255e-10 -1.0185e-09 -2.05557e-09 -2.90554 0.965183 -0.102902 -6.83265e-10 -1.0185e-09 -2.05557e-09 -10.2786 0.731801 -0.0259123 -6.83256e-10 -1.0185e-09 -2.05557e-09 -2.22167 -0.733487 0.20892 -2.03217e-16 0.0 -3.88251e-19 -8.26776 -0.57341 11.1897 -0.127401 23.8513 0.499808 -4.33466 -27.8551 -9.60888 2.03217e-16 0.0 3.88251e-19 8.5724 -52.4441 -6.35786 0.0762411 19.7717 0.026236 -5.04491 24.4964 9.80601
88.2189 76.6776 92.1924 173.007 2.5296 -167.335 -5.55011 -26.1788 -0.506402 0.661683 17.4944 0.104379 -1.79266 14.3629 2.14311 0.345036 -1.84973 7.99322 -0.0 0.0 0.0 -0.0 0.0 0.0 2.05408e-13 -9.38289e-14 -1.42131e-14 79.1235 15.018 -2.12434 -17.714 -10.3824 33.3817 -0.02284 -4.31026 -0.606924 -6.84632e-10 -7.88015e-10 1.57927e-10 -1.17789e-09 -1.36715e-09 2.73509e-10 -6.8463e-10 -7.88012e-10 1.57921e-10 7.73091 5.47488 0.417314 -6.84634e-10 -7.88012e-10 1.57927e-10 2.90554 0.965183 0.102902 -6.84625e-10 -7.88012e-10 1.57924e-10 10.2786 0.731801 0.0259123 -6.84644e-10 -7.8801e-10 1.5794e-10 2.22167 -0.733487 -0.20892 2.05493e-13 -9.38233e-14 -1.44119e-14 -77.2339 11.254 7.52727 10.0318 -4.16075 -17.8611 0.0396118 5.67138 -0.7997 -8.15012e-10 -9.87546e-10 -2.30259e-09 -1.4186e-09 -1.71062e-09 -3.97648e-09 -8.15019e-10 -9.87548e-10 -2.30258e-09 -7.73091 5.47488 -0.417314 -8.15009e-10 -9.87547e-10 -2.3026e-09 -2.90554 0.965183 -0.102902 -8.15019e-10 -9.87546e-10 -2.3026e-09 -10.2786 0.731801 -0.0259123 -8.1501e-10 -9.87545e-10 -2.3026e-09 -2.22167 -0.733487 0.20892 -2.03217e-16 0.0 -3.88251e-19 -8.47884 -0.361065 11.2497 -0.129208 23.6921 0.482372 -4.33485 -27.7125 -9.6506 2.03217e-16 0.0 3.88251e-19 8.40458 -52.4378 -6.38189 0.0749005 20.2041 0.014373 -5.10335 24.8637 9.74231
87.951 76.5657 91.7547 173.141 2.6953 -167.138 -5.63061 -26.1314 -0.421158 0.616592 17.5682 0.135348 -1.7921 14.2984 2.11467 0.521656 -2.10657 7.85154 -0.0 0.0 0.0 -0.0 0.0 0.0 2.04913e-13 -5.9441e-14 -3.29132e-14 79.1574 15.2232 -1.86986 -17.8004 -10.4739 33.5734 -0.0235311 -4.37197 -0.615651 -7.90961e-10 -3.53658e-10 -1.11849e-11 -1.36209e-09 -6.1605e-10 -1.97021e-11 -7.90958e-10 -3.53657e-10 -1.1191e-11 7.73091 5.47488 0.417314 -7.90962e-10 -3.53657e-10 -1.11845e-11 2.90554 0.965183 0.102902 -7.90954e-10 -3.53657e-10 -1.11891e-11 10.2786 0.731801 0.0259123 -7.90972e-10 -3.53655e-10 -1.11708e-11 2.22167 -0.733487 -0.20892 2.0494e-13 -5.94383e-14 -3.31423e-14 -77.1388 11.0716 7.41553 10.0554 -4.17508 -17.9055 0.0389267 5.61234 -0.791335 -1.0203e-09 -5.7014e-10 -1.80208e-09 -1.77123e-09 -9.87813e-10 -3.11011e-09 -1.02031e-09 -5.70142e-10 -1.80206e-09 -7.73091 5.47488 -0.417314 -1.0203e-09 -5.7014e-10 -1.80208e-09 -2.90554 0.965183 -0.102902 -1.02031e-09 -5.7014e-10 -1.80208e-09 -10.2786 0.731801 -0.0259123 -1.0203e-09 -5.70139e-10 -1.80208e-09 -2.22167 -0.733487 0.20892 -2.03217e-16 0.0 -3.88251e-19 -8.71231 -0.205531 11.288 -0.131517 23.5158 0.460741 -4.2959 -27.5407 -9.62134 2.03217e-16 0.0 3.88251e-19 8.22751 -52.4325 -6.44755 0.0730599 20.6826 -0.00398325 -5.14189 25.2474 9.60367
87.703 76.4535 91.3134 173.265 2.9405 -166.93 -5.72533 -26.0748 -0.331308 0.616705 17.5422 0.165292 -1.86698 14.2505 2.07146 0.770894 -2.28613 7.7099 -0.0 0.0 0.0 -0.0 0.0 0.0 1.94158e-13 5.83872e-15 -6.06076e-14 79.1713 15.4636 -1.70746 -17.8934 -10.5729 33.7806 -0.0240123 -4.41365 -0.621546 -9.7254e-10 4.18818e-10 -2.93086e-10 -1.67709e-09 7.1999e-10 -5.08469e-10 -9.72536e-10 4.18817e-10 -2.93094e-10 7.73091 5.47488 0.417314 -9.72541e-10 4.18819e-10 -2.93085e-10 2.90554 0.965183 0.102902 -9.72532e-10 4.18819e-10 -2.93091e-10 10.2786 0.731801 0.0259123 -9.72549e-10 4.18821e-10 -2.9307e-10 2.22167 -0.733487 -0.20892 1.94109e-13 5.83955e-15 -6.08933e-14 -77.1115 10.8252 7.37712 10.0713 -4.18473 -17.9353 0.0395951 5.65987 -0.798082 -1.26168e-09 1.1487e-10 -8.21064e-10 -2.18364e-09 1.98526e-10 -1.41269e-09 -1.26168e-09 1.14869e-10 -8.21051e-10 -7.73091 5.47488 -0.417314 -1.26167e-09 1.14871e-10 -8.21064e-10 -2.90554 0.965183 -0.102902 -1.26168e-09 1.1487e-10 -8.21061e-10 -10.2786 0.731801 -0.0259123 -1.26167e-09 1.14872e-10 -8.21064e-10 -2.22167 -0.733487 0.20892 -2.03217e-16 0.0 -3.88251e-19 -8.96263 -0.0908157 11.3107 -0.134053 23.3187 0.436821 -4.23613 -27.3458 -9.55619 2.03217e-16 0.0 3.88251e-19 8.03741 -52.4302 -6.55115 0.071154 21.2007 -0.0279246 -5.16303 25.6258 9.41587
87.4624 76.3424 90.909 173.369 3.1683 -166.575 -5.78072 -26.0165 -0.238677 0.642007 17.463 0.191715 -1.96172 14.1964 2.01617 1.05482 -2.41944 7.55776 -0.0 0.0 0.0 -0.0 0.0 0.0 1.71599e-13 6.50178e-14 -8.24735e-14 79.1884 15.7255 -1.56978 -17.9831 -10.6689 33.9817 -0.0245844 -4.46637 -0.628999 -1.08737e-09 1.14238e-09 -5.38416e-10 -1.87701e-09 1.97186e-09 -9.33777e-10 -1.08737e-09 1.14238e-09 -5.38427e-10 7.73091 5.47488 0.417314 -1.08737e-09 1.14238e-09 -5.38416e-10 2.90554 0.965183 0.102902 -1.08736e-09 1.14238e-09 -5.38422e-10 10.2786 0.731801 0.0259123 -1.08738e-09 1.14238e-09 -5.384e-10 2.22167 -0.733487 -0.20892 1.71487e-13 6.50177e-14 -8.28097e-14 -77.1005 10.5626 7.36758 10.0883 -4.19515 -17.9674 0.0403991 5.72123 -0.806785 -1.38666e-09 7.58054e-10 1.8735e-10 -2.39469e-09 1.31254e-09 3.31594e-10 -1.38666e-09 7.58053e-10 1.87361e-10 -7.73091 5.47488 -0.417314 -1.38665e-09 7.58055e-10 1.87355e-10 -2.90554 0.965183 -0.102902 -1.38666e-09 7.58054e-10 1.87356e-10 -10.2786 0.731801 -0.0259123 -1.38665e-09 7.58055e-10 1.87355e-10 -2.22167 -0.733487 0.20892 -2.03217e-16 0.0 -3.88251e-19 -9.17369 -0.0111075 11.3157 -0.134812 23.1496 0.42405 -4.16806 -27.1623 -9.47526 2.03217e-16 0.0 3.88251e-19 7.91494 -52.4624 -6.60385 0.0702348 21.7144 -0.0602491 -5.06566 25.7301 9.04047
87.1943 76.1958 90.5146 173.493 3.3805 -166.184 -5.7432 -25.964 -0.145062 0.672363 17.3772 0.212159 -2.02083 14.1132 1.95153 1.33513 -2.53759 7.38463 -0.0 0.0 0.0 -0.0 0.0 0.0 1.35692e-13 8.11038e-14 -8.36883e-14 79.2312 15.995 -1.38922 -18.0602 -10.7515 34.1553 -0.0255838 -4.56118 -0.642403 -9.93464e-10 1.42999e-09 -5.97817e-10 -1.71596e-09 2.47043e-09 -1.03661e-09 -9.9346e-10 1.42999e-09 -5.9783e-10 7.73091 5.47488 0.417314 -9.93464e-10 1.42999e-09 -5.97817e-10 2.90554 0.965183 0.102902 -9.93455e-10 1.42999e-09 -5.97823e-10 10.2786 0.731801 0.0259123 -9.93469e-10 1.42999e-09 -5.97801e-10 2.22167 -0.733487 -0.20892 1.35559e-13 8.11038e-14 -8.40362e-14 -77.0547 10.3318 7.34247 10.1154 -4.21179 -18.0181 0.0400659 5.70366 -0.804282 -1.24276e-09 1.04998e-09 7.7007e-10 -2.14325e-09 1.81835e-09 1.33852e-09 -1.24276e-09 1.04998e-09 7.70079e-10 -7.73091 5.47488 -0.417314 -1.24276e-09 1.04998e-09 7.70076e-10 -2.90554 0.965183 -0.102902 -1.24276e-09 1.04998e-09 7.70077e-10 -10.2786 0.731801 -0.0259123 -1.24275e-09 1.04998e-09 7.70076e-10 -2.22167 -0.733487 0.20892 -2.03217e-16 0.0 -3.88251e-19 -9.28947 0.0393926 11.3007 -0.131596 23.0572 0.435784 -4.10375 -27.0248 -9.39842 2.03217e-16 0.0 3.88251e-19 7.94108 -52.5605 -6.51657 0.0713611 22.1797 -0.10376 -4.75962 25.2885 8.34378
86.9368 75.9219 90.1246 173.807 3.2611 -165.718 -5.51294 -25.9218 -0.0345721 0.689539 17.2959 0.226912 -2.02681 13.9655 1.87115 1.63052 -2.63566 7.1712 -0.0 0.0 0.0 -0.0 0.0 0.0 7.19639e-14 2.76361e-14 -4.72968e-14 79.3121 16.2901 -1.13116 -18.1257 -10.8224 34.3031 -0.0274272 -4.73065 -0.66637 -5.3054e-10 1.05516e-09 -3.40018e-10 -9.1704e-10 1.82478e-09 -5.8927e-10 -5.30534e-10 1.05517e-09 -3.40031e-10 7.73091 5.47488 0.417314 -5.30539e-10 1.05516e-09 -3.40017e-10 2.90554 0.965183 0.102902 -5.3053e-10 1.05516e-09 -3.40021e-10 10.2786 0.731801 0.0259123 -5.30543e-10 1.05516e-09 -3.40002e-10 2.22167 -0.733487 -0.20892 7.1879e-14 2.7638e-14 -4.75922e-14 -76.954 10.1296 7.29606 10.1621 -4.24057 -18.1058 0.0380219 5.56379 -0.784422 -6.18546e-10 7.73995e-10 7.43427e-10 -1.06492e-09 1.3409e-09 1.28951e-09 -6.1855e-10 7.73995e-10 7.43437e-10 -7.73091 5.47488 -0.417314 -6.18543e-10 7.73997e-10 7.43432e-10 -2.90554 0.965183 -0.102902 -6.1855e-10 7.73996e-10 7.43433e-10 -10.2786 0.731801 -0.0259123 -6.18541e-10 7.73997e-10 7.43431e-10 -2.22167 -0.733487 0.20892 -2.03217e-16 0.0 -3.88251e-19 -9.23099 0.0518939 11.2627 -0.122288 23.0759 0.484284 -4.05794 -26.9566 -9.36073 2.03217e-16 0.0 3.88251e-19 8.25241 -52.7343 -6.21682 0.0754428 22.5751 -0.168497 -4.16319 24.0187 7.12147
86.6489 75.6316 89.5746 174.106 3.4802 -165.35 -5.14701 -25.8849 0.0882997 0.708567 17.1948 0.236969 -2.01057 13.7752 1.77608 1.95207 -2.70141 6.92854 -0.0 0.0 0.0 -0.0 0.0 0.0 -1.40735e-14 -7.01238e-14 1.44616e-14 79.4156 16.6108 -0.836794 -18.1839 -10.8857 34.4341 -0.0299961 -4.95011 -0.697432 1.84867e-10 2.65398e-10 1.24844e-10 3.18155e-10 4.62608e-10 2.17231e-10 1.84874e-10 2.65411e-10 1.24831e-10 7.73091 5.47488 0.417314 1.84867e-10 2.65395e-10 1.24846e-10 2.90554 0.965183 0.102902 1.84876e-10 2.65395e-10 1.24845e-10 10.2786 0.731801 0.0259123 1.84864e-10 2.65398e-10 1.24858e-10 2.22167 -0.733487 -0.20892 -1.40648e-14 -7.01185e-14 1.42597e-14 -76.8278 9.93565 7.24998 10.2212 -4.27707 -18.2168 0.0351874 5.3573 -0.755129 3.47733e-10 1.39839e-10 3.70021e-10 6.0279e-10 2.43372e-10 6.39296e-10 3.4773e-10 1.3984e-10 3.70032e-10 -7.73091 5.47488 -0.417314 3.47736e-10 1.39842e-10 3.70024e-10 -2.90554 0.965183 -0.102902 3.47729e-10 1.39841e-10 3.70024e-10 -10.2786 0.731801 -0.0259123 3.47737e-10 1.39843e-10 3.7002e-10 -2.22167 -0.733487 0.20892 -2.03217e-16 0.0 -3.88251e-19 -9.04949 0.0267462 11.2036 -0.108732 23.1726 0.559588 -4.02006 -26.9346 -9.34148 2.03217e-16 0.0 3.88251e-19 8.772 -52.9654 -5.76472 0.0821202 22.9275 -0.250036 -3.4355 22.1153 5.54341
